<?xml version="1.0" encoding="utf-8"?>
<!-- Generator: Adobe Illustrator 26.3.1, SVG Export Plug-In . SVG Version: 6.00 Build 0)  -->
<svg version="1.1" id="Calque_1" xmlns="http://www.w3.org/2000/svg" xmlns:xlink="http://www.w3.org/1999/xlink" x="0px" y="0px"
	 viewBox="0 0 469.9 434.4" style="enable-background:new 0 0 469.9 434.4;" xml:space="preserve">
<style type="text/css">
	.st0{clip-path:url(#SVGID_00000140707076830974624050000006214545617010628276_);fill:#D6D6ED;}
	.st1{clip-path:url(#SVGID_00000140707076830974624050000006214545617010628276_);}
	.st2{fill:#FFFFFF;}
	.st3{clip-path:url(#SVGID_00000145743623522693332230000014762865990148242365_);}
	.st4{fill:#E75A70;}
	.st5{enable-background:new    ;}
	.st6{fill:url(#SVGID_00000033334074094294982750000005817895671885686716_);}
	.st7{fill:url(#SVGID_00000038401695533783747170000004869072241357010366_);}
	.st8{fill:#272251;}
	.st9{fill:url(#SVGID_00000045609050954751616250000002195215125292216485_);}
	.st10{fill:url(#SVGID_00000072277552074497381430000000072391814527676312_);}
	.st11{fill:url(#SVGID_00000013892627914091780720000014191586259727643284_);}
	.st12{fill:url(#SVGID_00000052808701107721796000000011223749339546854289_);}
	.st13{fill:#7171B3;}
	.st14{fill:#D6D6ED;}
</style>
<g>
	<defs>
		<rect id="SVGID_1_" x="0.3" y="0.3" width="471.1" height="434.5"/>
	</defs>
	<clipPath id="SVGID_00000150084052738175939700000013138519748321477260_">
		<use xlink:href="#SVGID_1_"  style="overflow:visible;"/>
	</clipPath>
	<path style="clip-path:url(#SVGID_00000150084052738175939700000013138519748321477260_);fill:#D6D6ED;" d="M248.7,34.8L248.7,34.8
		c76.3,0,138.2,61.9,138.2,138.2v211.8c0,4.4-3.6,8-8,8H118.6c-4.4,0-8-3.6-8-8V172.9C110.5,96.6,172.4,34.8,248.7,34.8z"/>
	
		<g id="X4LIYi_00000113351174590411885840000017260368012763995060_" style="clip-path:url(#SVGID_00000150084052738175939700000013138519748321477260_);">
		
			<image style="overflow:visible;enable-background:new    ;" width="3272" height="1833" id="X4LIYi_00000094583525086623518550000015841373652289625508_" xlink:href="320B07F575443FA1.png"  transform="matrix(-9.854885e-02 -2.126316e-02 -2.126316e-02 9.854885e-02 492.9707 139.2933)">
		</image>
	</g>
	
		<g id="X4LIYi_00000101065253857187779980000007064064645223395746_" style="clip-path:url(#SVGID_00000150084052738175939700000013138519748321477260_);">
		
			<image style="overflow:visible;enable-background:new    ;" width="3272" height="1833" id="X4LIYi_00000148628315279968078020000010217461812451648419_" xlink:href="320B07F575443FA1.png"  transform="matrix(0.1239 -2.672484e-02 2.672484e-02 0.1239 -35.4706 209.7326)">
		</image>
		<polygon class="st2" points="118.4,261.2 171.6,222.4 252,256.7 199.6,295.8 131.5,282.1 		"/>
		<g>
			<g>
				<defs>
					<polygon id="SVGID_00000088115126674116824170000013826727800069978263_" points="198.9,204.8 243,172.5 309.7,201 
						266.3,233.4 209.8,222 					"/>
				</defs>
				<clipPath id="SVGID_00000047745870041821874960000005419487663280232863_">
					<use xlink:href="#SVGID_00000088115126674116824170000013826727800069978263_"  style="overflow:visible;"/>
				</clipPath>
				
					<g id="X4LIYi_00000158735652017863454950000007916180546520792511_" style="clip-path:url(#SVGID_00000047745870041821874960000005419487663280232863_);">
					
						<image style="overflow:visible;enable-background:new    ;" width="3272" height="1833" id="X4LIYi_00000155838666497232538160000008241172239495169927_" xlink:href="320B07F575443FA1.png"  transform="matrix(0.1027 -2.215076e-02 2.215076e-02 0.1027 71.404 162.0618)">
					</image>
				</g>
			</g>
		</g>
	</g>
	<path style="clip-path:url(#SVGID_00000150084052738175939700000013138519748321477260_);fill:#D6D6ED;" d="M175.7,326.2
		c-18,4.4-68.8,3.1-58.4-5.1s42.3-9.7,42.3-9.7l28.6,5.8L175.7,326.2z"/>
	<g style="clip-path:url(#SVGID_00000150084052738175939700000013138519748321477260_);">
		<path class="st4" d="M362.5,48v46.7h-46.3l0,0c-0.1,0-0.3,0-0.4,0c-25.8,0-46.7-20.9-46.7-46.7S290,1.3,315.8,1.3
			c25.2,0,45.8,20,46.7,45C362.5,46.9,362.5,47.4,362.5,48z"/>
		<g class="st5">
			<path class="st2" d="M315.3,67.8c-2.7,0.1-4.2-1.3-4.2-4.2l-0.3-11.5L299,52.4c-2.9,0.1-4.3-1.2-4.4-4c-0.1-2.8,1.3-4.2,4.2-4.3
				l11.6-0.3l-0.3-11.6c-0.1-2.9,1.2-4.3,4-4.4c2.8-0.1,4.2,1.3,4.3,4.2l0.3,11.6l11.6-0.3c2.9-0.1,4.3,1.2,4.4,3.9
				c0.1,2.8-1.3,4.3-4.2,4.4l-11.6,0.3l0.3,11.5C319.3,66.2,318,67.7,315.3,67.8z"/>
		</g>
	</g>
	<g style="clip-path:url(#SVGID_00000150084052738175939700000013138519748321477260_);">
		
			<linearGradient id="SVGID_00000075883161309537965580000003308386821517229199_" gradientUnits="userSpaceOnUse" x1="8156.7627" y1="129.7204" x2="8075.5835" y2="83.3846" gradientTransform="matrix(1 0 0 -1 -7868.0332 436)">
			<stop  offset="0" style="stop-color:#FEBBBA"/>
			<stop  offset="1" style="stop-color:#FF928E"/>
		</linearGradient>
		<path style="fill:url(#SVGID_00000075883161309537965580000003308386821517229199_);" d="M276.4,381.8c-0.1,0-51.6-90.2-58.5-98.7
			c-1.2-1.4-3-2.2-4.8-1.9l-14.4,1.7l-16.9,36.5l28.1-16.4c-2.8,19.2,33.4,47.9,45.7,58.3c1.3,1.1,1.4,3,0.2,4.1l-4.9,5.2
			c8.1,8.2,17.5,13.5,28.1,16L276.4,381.8z"/>
		<path class="st4" d="M253.8,367.9c0,0-3.2,1-4.2,3.8c-0.5,1.3,0,2.9,1.2,3.7c5.2,3.7,22.3,15.8,30.3,18.1c0.6,0.2,1.3-0.4,1.1-1.1
			c-0.4-1.8-1.7-5.5-6-10.9l0.4,0.8c0.5,1-0.6,2-1.5,1.5C269.8,380.8,259,374.3,253.8,367.9z"/>
		
			<linearGradient id="SVGID_00000171699131170608235500000016128837282424613288_" gradientUnits="userSpaceOnUse" x1="8148.8887" y1="118.1997" x2="8426.6436" y2="292.0788" gradientTransform="matrix(1 0 0 -1 -7868.0332 436)">
			<stop  offset="0" style="stop-color:#FEBBBA"/>
			<stop  offset="1" style="stop-color:#FF928E"/>
		</linearGradient>
		<path style="fill:url(#SVGID_00000171699131170608235500000016128837282424613288_);" d="M256.3,403.9c-0.1-0.1-7.8-18.7-7.9-18.7
			c-7.1-43.1-24.4-80.1-29.5-89.8c-0.9-1.6-2.5-2.7-4.3-2.9l-14.4-1.2l-23.9,32.4l30.9-10.4c-6.6,18.3,23,53.6,33,66.3
			c1,1.3,0.7,3.2-0.6,4.1l-5.9,4.1c6.3,9.7,14.4,16.8,24.3,21.3L256.3,403.9z"/>
		<path class="st4" d="M237,385.7c0,0-3.3,0.4-4.9,2.9c-0.8,1.2-0.5,2.8,0.4,3.9c4.3,4.7,18.7,19.9,26,23.9c0.6,0.3,1.3-0.1,1.3-0.8
			c0-1.9-0.6-5.7-3.6-11.9l0.2,0.8c0.3,1-1,1.8-1.8,1.1C250,401.6,240.8,393,237,385.7z"/>
		<g>
			<g>
				<path class="st8" d="M132.7,284.5c0,0-13,19.4-14.1,28.3s3.6,11.9,17.3,13c40.6,3.4,60.7-8.8,60.7-8.8
					c2.8-17.7,4.8-22.2,28-31.9c0,0-29.4,2.3-35.3,0C183.3,282.9,132.7,284.5,132.7,284.5z"/>
			</g>
		</g>
		<g>
			<path class="st4" d="M168,281.9c0,0,15.2-14.5,22.7-24c4-5.2,5.3-12,3.4-18.3c-3.4-11.5-9.5-23.4-10-25.3
				c-0.8-2.8-17.9-2.7-17.9-2.7s-33.5,21.8-46.7,58.6l14.8,4.6c0,0,8.8-14.7,17.4-24c0,0-15,19.8-15.5,27.9L168,281.9z"/>
			
				<linearGradient id="SVGID_00000113325938808276039010000007074038303268920505_" gradientUnits="userSpaceOnUse" x1="-3605.1111" y1="201.5739" x2="-3610.6265" y2="236.9653" gradientTransform="matrix(-1 0 0 -1 -3433.1658 436)">
				<stop  offset="0" style="stop-color:#FEBBBA"/>
				<stop  offset="1" style="stop-color:#FF928E"/>
			</linearGradient>
			<path style="fill:url(#SVGID_00000113325938808276039010000007074038303268920505_);" d="M186.1,198.5c-0.2,0.6-4.6,15.3-5,15.6
				s-9.8,0.8-14.2-2.2l9-20L186.1,198.5z"/>
			
				<linearGradient id="SVGID_00000011028739288903973060000013732564803242019243_" gradientUnits="userSpaceOnUse" x1="-2123.4912" y1="4323.6787" x2="-2087.8499" y2="4299.4692" gradientTransform="matrix(-0.723 -0.6909 0.6909 -0.723 -4321.6719 1855.2115)">
				<stop  offset="0" style="stop-color:#FEBBBA"/>
				<stop  offset="1" style="stop-color:#FF928E"/>
			</linearGradient>
			<path style="fill:url(#SVGID_00000011028739288903973060000013732564803242019243_);" d="M198.4,181.9c0,0,3.2,7.3-0.6,18.4
				c-3.7,11.1-9.8,12.1-13.6,9.3c-3.8-2.7-8.8-7.7-9.5-17.7C174.1,181.9,194,172.6,198.4,181.9z"/>
			<path class="st8" d="M182.2,191.3c0,0,6.7-15,16.8-5.7l0.8,3.9c0,0,9.6-2.7,6.4-11.4c-3.2-8.7-14.6-14.6-24.9-9
				c-10.3,5.6-13.7,12.3-13.2,20.2c0.6,7.9,6.5,5.2,6.5,5.2s1.1-5.8,3.9-6.9c2.8-1,2.7,3.4,2.7,3.4L182.2,191.3z"/>
			
				<linearGradient id="SVGID_00000029726457283971017420000015610730706507537831_" gradientUnits="userSpaceOnUse" x1="-2121.4016" y1="4326.7544" x2="-2085.7605" y2="4302.5454" gradientTransform="matrix(-0.723 -0.6909 0.6909 -0.723 -4321.6719 1855.2115)">
				<stop  offset="0" style="stop-color:#FEBBBA"/>
				<stop  offset="1" style="stop-color:#FF928E"/>
			</linearGradient>
			<path style="fill:url(#SVGID_00000029726457283971017420000015610730706507537831_);" d="M179.9,191.5c0,0,3.5-7.7-1.4-8
				s-2.9,7.4-1.9,10.3L179.9,191.5z"/>
			
				<linearGradient id="SVGID_00000065760785384500937390000002828677621752293559_" gradientUnits="userSpaceOnUse" x1="-3579.7053" y1="156.4902" x2="-3498.7971" y2="156.4902" gradientTransform="matrix(-1 0 0 -1 -3433.1658 436)">
				<stop  offset="0" style="stop-color:#FEBBBA"/>
				<stop  offset="1" style="stop-color:#FF928E"/>
			</linearGradient>
			<path style="fill:url(#SVGID_00000065760785384500937390000002828677621752293559_);" d="M196.9,287.7l-11.4-12.4l-13.2,3.5
				c0,0-15.4,2.4-24.2,0s-8.8-2.4-8.8-2.4l-19.9-6.2l-3.1,8.8c-0.8,2.2,0,4.7,1.9,6.1c1.7,1.2,3.7,2.6,5,3.1
				c2.6,1.1,60.3,0.4,60.3,0.4L196.9,287.7z"/>
			<path class="st8" d="M179.9,172.5c2.1-0.5,2.5-3.2,0.7-4.6c-5.7-4.5-15.8-9.1-26.9,0.9c-12.5,11.3-19.5,16.5-23.2,16
				c-2.4-0.3-4,2.1-2.5,4.1c1.1,1.4,3.1,2.9,6.4,4C160.2,201.4,167.5,175.4,179.9,172.5z"/>
		</g>
		<g>
			<path class="st13" d="M159.2,292.6h0.1l52.5-0.1c1.3,0,2.3-1.1,2.3-2.4s-1.1-2.4-2.4-2.3l-52.5,0.1c-1.3,0-2.3,1.1-2.3,2.4
				C156.9,291.5,157.9,292.5,159.2,292.6z"/>
			<path class="st13" d="M259,244.9h-43.7c-3.2,0-6.2,1.9-7.5,4.8l-20.2,42.9h54.3c2.1,0,3.9-1.3,4.7-3.2l15.7-39.7
				C263.1,247.4,261.4,244.9,259,244.9z"/>
			<path class="st14" d="M228.2,266.9c-0.9,2.9-0.2,5.8,1.6,6.4s4-1.3,5-4.3s0.2-5.8-1.6-6.4S229.1,263.9,228.2,266.9z"/>
		</g>
	</g>
</g>
</svg>
