<?xml version="1.0" encoding="utf-8"?>
<!-- Generator: Adobe Illustrator 26.3.1, SVG Export Plug-In . SVG Version: 6.00 Build 0)  -->
<svg version="1.1" id="Calque_1" xmlns="http://www.w3.org/2000/svg" xmlns:xlink="http://www.w3.org/1999/xlink" x="0px" y="0px"
	 viewBox="0 0 469.9 434.4" style="enable-background:new 0 0 469.9 434.4;" xml:space="preserve">
<style type="text/css">
	.st0{fill:#D6D6ED;}
	.st1{fill:url(#SVGID_1_);}
	.st2{fill:#E75A70;}
	.st3{fill:url(#SVGID_00000062892667463075142230000016633479475988780476_);}
	.st4{fill:url(#SVGID_00000034059381261993581210000005960639265466205606_);}
	.st5{fill:url(#SVGID_00000105393556212932490030000001074274981411282845_);}
	.st6{fill:url(#SVGID_00000077282062541383425920000001995675065365390781_);}
	.st7{fill:url(#SVGID_00000077311614779111909800000005197149066070031015_);}
	.st8{fill:#D15165;}
	.st9{fill:url(#SVGID_00000153692511736070083500000017249447378247979686_);}
	.st10{fill:#272251;}
	.st11{fill:url(#SVGID_00000151529170056756791420000001516327304397170562_);}
	.st12{fill:url(#SVGID_00000174563391585593914750000005311349819460714413_);}
	.st13{fill:url(#SVGID_00000172418876647433418160000010341130755317814719_);}
	.st14{fill:#F7F7FF;}
	.st15{fill:url(#SVGID_00000093873048461144196290000007608638047257068718_);}
	.st16{fill:url(#SVGID_00000169529003544015540270000008733627890664301755_);}
	.st17{fill:url(#SVGID_00000131347896135494658630000005456096844427568308_);}
	.st18{fill:#FFFFFF;}
	.st19{clip-path:url(#SVGID_00000158747247122605083780000012723554037271506311_);}
	.st20{font-family:'F37GingerRoundBold';}
	.st21{font-size:70.4188px;}
	.st22{fill:url(#SVGID_00000144308630628494177160000012258393101394682032_);}
	.st23{fill:url(#SVGID_00000013892909514295636450000002861136316131478173_);}
	.st24{fill:url(#SVGID_00000145040496576106413260000002012522098205583788_);}
	.st25{fill:url(#SVGID_00000061436396098163251500000017761441792878013843_);}
	.st26{fill:url(#SVGID_00000055692732109283214550000008798159879125442737_);}
	.st27{fill:url(#SVGID_00000145051095252445442210000004898122874186775714_);}
	.st28{fill:#7171B3;}
</style>
<path class="st0" d="M248.7,34.8L248.7,34.8c76.3,0,138.2,61.9,138.2,138.2v211.8c0,4.4-3.6,8-8,8H118.6c-4.4,0-8-3.6-8-8V172.9
	C110.5,96.6,172.4,34.8,248.7,34.8z"/>
<g id="X4LIYi_00000113351174590411885840000017260368012763995060_">
	
		<image style="overflow:visible;" width="3272" height="1833" id="X4LIYi_00000094583525086623518550000015841373652289625508_" xlink:href="320B07F575443FA1.png"  transform="matrix(-9.854885e-02 -2.126316e-02 -2.126316e-02 9.854885e-02 492.9707 139.2933)">
	</image>
</g>
<g id="X4LIYi_00000101065253857187779980000007064064645223395746_">
	
		<image style="overflow:visible;" width="3272" height="1833" id="X4LIYi_00000148628315279968078020000010217461812451648419_" xlink:href="320B07F575443FA3.png"  transform="matrix(0.1239 -2.672484e-02 2.672484e-02 0.1239 -35.4706 209.7326)">
	</image>
	<polygon class="st18" points="118.4,261.2 171.6,222.4 252,256.7 199.6,295.8 131.5,282.1 	"/>
	<g>
		<defs>
			<polygon id="SVGID_00000036929605422380610270000006215470285392804758_" points="198.9,204.8 243,172.5 309.7,201 266.3,233.4 
				209.8,222 			"/>
		</defs>
		<clipPath id="SVGID_00000072240839815706363220000005180708975910911115_">
			<use xlink:href="#SVGID_00000036929605422380610270000006215470285392804758_"  style="overflow:visible;"/>
		</clipPath>
		
			<g id="X4LIYi_00000158735652017863454950000007916180546520792511_" style="clip-path:url(#SVGID_00000072240839815706363220000005180708975910911115_);">
			
				<image style="overflow:visible;" width="3272" height="1833" id="X4LIYi_00000155838666497232538160000008241172239495169927_" xlink:href="320B07F575443FA6.png"  transform="matrix(0.1027 -2.215076e-02 2.215076e-02 0.1027 71.404 162.0618)">
			</image>
		</g>
	</g>
</g>
<path class="st0" d="M175.7,326.2c-18,4.4-68.8,3.1-58.4-5.1s42.3-9.7,42.3-9.7l28.6,5.8L175.7,326.2z"/>
<g>
	<path class="st2" d="M362.5,48v46.7h-46.3v0c-0.1,0-0.3,0-0.4,0c-25.8,0-46.7-20.9-46.7-46.7c0-25.8,20.9-46.7,46.7-46.7
		c25.2,0,45.8,20,46.7,45C362.5,46.9,362.5,47.4,362.5,48z"/>
	<text transform="matrix(0.9996 -2.964824e-02 2.964824e-02 0.9996 292.3283 72.8199)" class="st18 st20 st21">+</text>
</g>
<g>
	
		<linearGradient id="SVGID_1_" gradientUnits="userSpaceOnUse" x1="8156.7549" y1="306.2661" x2="8075.5757" y2="352.6019" gradientTransform="matrix(1 0 0 1 -7868.0332 0)">
		<stop  offset="0" style="stop-color:#FEBBBA"/>
		<stop  offset="1" style="stop-color:#FF928E"/>
	</linearGradient>
	<path class="st1" d="M276.4,381.8c-0.1,0-51.6-90.2-58.5-98.7c-1.2-1.4-3-2.2-4.8-1.9l-14.4,1.7l-16.9,36.5l28.1-16.4
		c-2.8,19.2,33.4,47.9,45.7,58.3c1.3,1.1,1.4,3,0.2,4.1l-4.9,5.2c8.1,8.2,17.5,13.5,28.1,16L276.4,381.8z"/>
	<path class="st2" d="M253.8,367.9c0,0-3.2,1-4.2,3.8c-0.5,1.3,0,2.9,1.2,3.7c5.2,3.7,22.3,15.8,30.3,18.1c0.6,0.2,1.3-0.4,1.1-1.1
		c-0.4-1.8-1.7-5.5-6-10.9l0.4,0.8c0.5,1-0.6,2-1.5,1.5C269.8,380.8,259,374.3,253.8,367.9z"/>
	
		<linearGradient id="SVGID_00000127005182588069059580000016460011193064093322_" gradientUnits="userSpaceOnUse" x1="8148.9019" y1="317.8217" x2="8426.6572" y2="143.9425" gradientTransform="matrix(1 0 0 1 -7868.0332 0)">
		<stop  offset="0" style="stop-color:#FEBBBA"/>
		<stop  offset="1" style="stop-color:#FF928E"/>
	</linearGradient>
	<path style="fill:url(#SVGID_00000127005182588069059580000016460011193064093322_);" d="M256.3,403.9c-0.1-0.1-7.8-18.7-7.9-18.7
		c-7.1-43.1-24.4-80.1-29.5-89.8c-0.9-1.6-2.5-2.7-4.3-2.9l-14.4-1.2l-23.9,32.4l30.9-10.4c-6.6,18.3,23,53.6,33,66.3
		c1,1.3,0.7,3.2-0.6,4.1l-5.9,4.1c6.3,9.7,14.4,16.8,24.3,21.3L256.3,403.9z"/>
	<path class="st2" d="M237,385.7c0,0-3.3,0.4-4.9,2.9c-0.8,1.2-0.5,2.8,0.4,3.9c4.3,4.7,18.7,19.9,26,23.9c0.6,0.3,1.3-0.1,1.3-0.8
		c0-1.9-0.6-5.7-3.6-11.9l0.2,0.8c0.3,1-1,1.8-1.8,1.1C250,401.6,240.8,393,237,385.7z"/>
	<g>
		<g>
			<path class="st10" d="M132.7,284.5c0,0-13,19.4-14.1,28.3c-1.1,8.9,3.6,11.9,17.3,13c40.6,3.4,60.7-8.8,60.7-8.8
				c2.8-17.7,4.8-22.2,28-31.9c0,0-29.4,2.3-35.3,0C183.3,282.9,132.7,284.5,132.7,284.5z"/>
		</g>
	</g>
	<g>
		<path class="st2" d="M168,281.9c0,0,15.2-14.5,22.7-24c4-5.2,5.3-12,3.4-18.3c-3.4-11.5-9.5-23.4-10-25.3
			c-0.8-2.8-17.9-2.7-17.9-2.7s-33.5,21.8-46.7,58.6l14.8,4.6c0,0,8.8-14.7,17.4-24c0,0-15,19.8-15.5,27.9L168,281.9z"/>
		
			<linearGradient id="SVGID_00000111177053249035859280000017096290246325643454_" gradientUnits="userSpaceOnUse" x1="-2797.1641" y1="234.4343" x2="-2802.6794" y2="199.0429" gradientTransform="matrix(-1 0 0 1 -2625.1658 0)">
			<stop  offset="0" style="stop-color:#FEBBBA"/>
			<stop  offset="1" style="stop-color:#FF928E"/>
		</linearGradient>
		<path style="fill:url(#SVGID_00000111177053249035859280000017096290246325643454_);" d="M186.1,198.5c-0.2,0.6-4.6,15.3-5,15.6
			s-9.8,0.8-14.2-2.2l9-20L186.1,198.5z"/>
		
			<linearGradient id="SVGID_00000154395324202063994140000014266352373128647603_" gradientUnits="userSpaceOnUse" x1="-1224.3252" y1="-3527.0999" x2="-1188.6838" y2="-3502.8906" gradientTransform="matrix(-0.723 -0.6909 -0.6909 0.723 -3121.2227 1900.5452)">
			<stop  offset="0" style="stop-color:#FEBBBA"/>
			<stop  offset="1" style="stop-color:#FF928E"/>
		</linearGradient>
		<path style="fill:url(#SVGID_00000154395324202063994140000014266352373128647603_);" d="M198.4,181.9c0,0,3.2,7.3-0.6,18.4
			c-3.7,11.1-9.8,12.1-13.6,9.3c-3.8-2.7-8.8-7.7-9.5-17.7C174.1,181.9,194,172.6,198.4,181.9z"/>
		<path class="st10" d="M182.2,191.3c0,0,6.7-15,16.8-5.7l0.8,3.9c0,0,9.6-2.7,6.4-11.4c-3.2-8.7-14.6-14.6-24.9-9
			c-10.3,5.6-13.7,12.3-13.2,20.2c0.6,7.9,6.5,5.2,6.5,5.2s1.1-5.8,3.9-6.9c2.8-1,2.7,3.4,2.7,3.4L182.2,191.3z"/>
		
			<linearGradient id="SVGID_00000105425795534166728220000009496084237866434989_" gradientUnits="userSpaceOnUse" x1="-1222.1888" y1="-3530.2444" x2="-1186.5477" y2="-3506.0354" gradientTransform="matrix(-0.723 -0.6909 -0.6909 0.723 -3121.2227 1900.5452)">
			<stop  offset="0" style="stop-color:#FEBBBA"/>
			<stop  offset="1" style="stop-color:#FF928E"/>
		</linearGradient>
		<path style="fill:url(#SVGID_00000105425795534166728220000009496084237866434989_);" d="M179.9,191.5c0,0,3.5-7.7-1.4-8
			c-4.9-0.3-2.9,7.4-1.9,10.3L179.9,191.5z"/>
		
			<linearGradient id="SVGID_00000118387793323086245390000011742455986349005228_" gradientUnits="userSpaceOnUse" x1="-2771.7053" y1="279.5574" x2="-2690.8386" y2="279.5574" gradientTransform="matrix(-1 0 0 1 -2625.1658 0)">
			<stop  offset="0" style="stop-color:#FEBBBA"/>
			<stop  offset="1" style="stop-color:#FF928E"/>
		</linearGradient>
		<path style="fill:url(#SVGID_00000118387793323086245390000011742455986349005228_);" d="M196.9,287.7l-11.4-12.4l-13.2,3.5
			c0,0-15.4,2.4-24.2,0c-8.8-2.4-8.8-2.4-8.8-2.4l-19.9-6.2l-3.1,8.8c-0.8,2.2,0,4.7,1.9,6.1c1.7,1.2,3.7,2.6,5,3.1
			c2.6,1.1,60.3,0.4,60.3,0.4L196.9,287.7z"/>
		<path class="st10" d="M179.9,172.5c2.1-0.5,2.5-3.2,0.7-4.6c-5.7-4.5-15.8-9.1-26.9,0.9c-12.5,11.3-19.5,16.5-23.2,16
			c-2.4-0.3-4,2.1-2.5,4.1c1.1,1.4,3.1,2.9,6.4,4C160.2,201.4,167.5,175.4,179.9,172.5z"/>
	</g>
	<g>
		<path class="st28" d="M159.2,292.6c0,0,0.1,0,0.1,0l52.5-0.1c1.3,0,2.3-1.1,2.3-2.4c0-1.3-1.1-2.4-2.4-2.3l-52.5,0.1
			c-1.3,0-2.3,1.1-2.3,2.4C156.9,291.5,157.9,292.5,159.2,292.6z"/>
		<path class="st28" d="M259,244.9h-43.7c-3.2,0-6.2,1.9-7.5,4.8l-20.2,42.9h54.3c2.1,0,3.9-1.3,4.7-3.2l15.7-39.7
			C263.1,247.4,261.4,244.9,259,244.9z"/>
		<path class="st0" d="M228.2,266.9c-0.9,2.9-0.2,5.8,1.6,6.4c1.8,0.6,4-1.3,5-4.3s0.2-5.8-1.6-6.4
			C231.4,262,229.1,263.9,228.2,266.9z"/>
	</g>
</g>
</svg>
