<?xml version="1.0" encoding="utf-8"?>
<!-- Generator: Adobe Illustrator 26.3.1, SVG Export Plug-In . SVG Version: 6.00 Build 0)  -->
<svg version="1.1" id="Calque_1" xmlns="http://www.w3.org/2000/svg" xmlns:xlink="http://www.w3.org/1999/xlink" x="0px" y="0px"
	 viewBox="0 0 556.4 434.4" style="enable-background:new 0 0 556.4 434.4;" xml:space="preserve">
<style type="text/css">
	.st0{fill:#D6D6ED;}
	.st1{fill:url(#SVGID_1_);}
	.st2{fill:#E75A70;}
	.st3{fill:url(#SVGID_00000048473560033928137780000016361111477340201897_);}
	.st4{fill:url(#SVGID_00000103959269506169562930000012819665751242060685_);}
	.st5{fill:url(#SVGID_00000019652273943809330510000014121564628802493610_);}
	.st6{fill:url(#SVGID_00000047049425340659090000000014245198339440077190_);}
	.st7{fill:url(#SVGID_00000085214885911382902490000016839931481920266391_);}
	.st8{fill:#D15165;}
	.st9{fill:url(#SVGID_00000114049815934493368970000004887034711959412123_);}
	.st10{fill:#272251;}
	.st11{fill:url(#SVGID_00000085973510618077803440000004025243612444854406_);}
	.st12{fill:url(#SVGID_00000182499715386307136630000016489437479546904212_);}
	.st13{fill:url(#SVGID_00000183238167093159905000000012248824106865099409_);}
	.st14{fill:#F7F7FF;}
	.st15{fill:url(#SVGID_00000129194191904171664960000017793116052369238168_);}
	.st16{fill:url(#SVGID_00000045609844061316063590000004579941178730471322_);}
	.st17{fill:url(#SVGID_00000140719968891088743970000009470402093896223643_);}
	.st18{font-family:'F37GingerRoundBold';}
	.st19{font-size:62.1963px;}
	.st20{fill:#FFFFFF;}
	.st21{clip-path:url(#SVGID_00000038394492342074196320000013737393826974176187_);}
	.st22{fill:url(#SVGID_00000062157043604146740530000010887826038514033054_);}
	.st23{fill:url(#SVGID_00000128483389775492035240000002992953571875332272_);}
	.st24{fill:url(#SVGID_00000096773794067767220190000011692760954196325546_);}
	.st25{fill:url(#SVGID_00000027584927660107904620000002020597392656252569_);}
	.st26{fill:url(#SVGID_00000018204113944979115730000007282078262801245361_);}
	.st27{fill:url(#SVGID_00000050653538548846041330000005074773979743470264_);}
	.st28{fill:#7171B3;}
</style>
<path class="st0" d="M283.1,19.3L283.1,19.3c76.3,0,138.2,61.9,138.2,138.2v211.8c0,4.4-3.6,8-8,8H153c-4.4,0-8-3.6-8-8V157.5
	C145,81.2,206.8,19.3,283.1,19.3z"/>
<g>
	<g>
		
			<linearGradient id="SVGID_1_" gradientUnits="userSpaceOnUse" x1="194.833" y1="247.5737" x2="127.4154" y2="238.4837" gradientTransform="matrix(0.9414 -0.3372 0.3372 0.9414 -5.4025 -6.3572)">
			<stop  offset="0" style="stop-color:#FF928E"/>
			<stop  offset="1" style="stop-color:#FEB3B1"/>
		</linearGradient>
		<path class="st1" d="M228.7,171.7c0,0-5.2-6.1-8.2-4.4c-2.9,1.8-5.5,5.4-5.5,5.4l-2.6,8.7c0,0,16.2,0.5,20.1-4.5
			c0,0,15.4-2.7,32.7-12.3c-4.7-4.7-8.3-9.7-10.7-13.7C247,159.5,238.4,167,228.7,171.7z"/>
		<path class="st2" d="M287.2,92.6c0,0-11.4,33.6-32.7,58.4c2.5,4,6.1,9.1,10.7,13.7c13.1-7.2,27.2-18.4,36.5-35.4L287.2,92.6z"/>
	</g>
	<path class="st2" d="M132.6,151.8l13.7,34.2c4.1-0.1,8-0.3,11.5-0.8c-0.3-7.4,1.3-17.3,2.9-24.7
		C145.2,160.6,132.6,151.8,132.6,151.8z"/>
	
		<linearGradient id="SVGID_00000127044855299678805000000001831652471170831546_" gradientUnits="userSpaceOnUse" x1="122.1687" y1="103.7658" x2="122.1687" y2="185.9551" gradientTransform="matrix(0.9414 -0.3372 0.3372 0.9414 -5.4025 -6.3572)">
		<stop  offset="0" style="stop-color:#FF928E"/>
		<stop  offset="1" style="stop-color:#FEB3B1"/>
	</linearGradient>
	<path style="fill:url(#SVGID_00000127044855299678805000000001831652471170831546_);" d="M201.1,126.6
		c-11.6,27.2-26.5,33.8-40.4,33.9c-1.6,7.5-3.2,17.3-2.9,24.7c54.4-6.9,49.7-57.6,49.7-57.6L201.1,126.6z"/>
	
		<linearGradient id="SVGID_00000135651470336410660350000001663998032801334967_" gradientUnits="userSpaceOnUse" x1="167.3466" y1="166.9848" x2="160.1503" y2="223.4188" gradientTransform="matrix(0.9414 -0.3372 0.3372 0.9414 -5.4025 -6.3572)">
		<stop  offset="0" style="stop-color:#FF928E"/>
		<stop  offset="1" style="stop-color:#FEB3B1"/>
	</linearGradient>
	<path style="fill:url(#SVGID_00000135651470336410660350000001663998032801334967_);" d="M204.2,123.1c0,0,1.3-3.1,5.6-3.8
		c4.3-0.7,8.4-0.6,10.1-3.6c1.7-3,3.7-0.5,3.7-0.5l-5.5,8.4L204.2,123.1z"/>
	
		<linearGradient id="SVGID_00000051379931059261924680000002710399605513794204_" gradientUnits="userSpaceOnUse" x1="168.6294" y1="103.7658" x2="168.6294" y2="185.955" gradientTransform="matrix(0.9414 -0.3372 0.3372 0.9414 -5.4025 -6.3572)">
		<stop  offset="0" style="stop-color:#FF928E"/>
		<stop  offset="1" style="stop-color:#FEB3B1"/>
	</linearGradient>
	<path style="fill:url(#SVGID_00000051379931059261924680000002710399605513794204_);" d="M201.1,128.7c0,0-0.7-6.8,4.1-7.5
		c4.8-0.8,17,1.1,19.3-0.8c2.3-2,4.7-5.6,6.8-5.4l-1.7,4.9c0,0,6.2-7.3,8.5-5l-10.4,12C227.7,126.8,208,131.7,201.1,128.7z"/>
	<path class="st2" d="M108.1,289.5c0,0-39.4-89.7-2.7-135.2c0,0,10-13.4,32.4-2.4c22.4,10.9,23.4,30.3,15.5,51.6
		c-7.9,21.3-11.4,55.5-2.2,70.7L108.1,289.5z"/>
	
		<linearGradient id="SVGID_00000162334062669442253280000014007495165360362909_" gradientUnits="userSpaceOnUse" x1="82.3909" y1="167.6344" x2="54.3633" y2="213.0845" gradientTransform="matrix(0.9414 -0.3372 0.3372 0.9414 -5.4025 -6.3572)">
		<stop  offset="0" style="stop-color:#FF928E"/>
		<stop  offset="0.531" style="stop-color:#FEA6A3"/>
		<stop  offset="1" style="stop-color:#FEB3B1"/>
	</linearGradient>
	<path style="fill:url(#SVGID_00000162334062669442253280000014007495165360362909_);" d="M120.1,120.8c0.4,1.1-7.3,28.9-7.3,28.9
		s4.8,4.5,19.8,4.2l3.1-27.9L120.1,120.8z"/>
	
		<linearGradient id="SVGID_00000002384694975189827270000008357193456349570438_" gradientUnits="userSpaceOnUse" x1="164.0363" y1="143.8062" x2="127.2975" y2="225.6165" gradientTransform="matrix(0.9414 -0.3372 0.3372 0.9414 -5.4025 -6.3572)">
		<stop  offset="0" style="stop-color:#FF928E"/>
		<stop  offset="1" style="stop-color:#FEB3B1"/>
	</linearGradient>
	<path style="fill:url(#SVGID_00000002384694975189827270000008357193456349570438_);" d="M141.3,199.3c0,0,38.6,14.2,66.8-8.1
		c1.7-1.4,4-2,6.2-1.7l11,1.6c4.6,0.7,8.9-2.4,9.8-7c0.5-2.6,0.7-5.4,0.1-7.9l-20.7-0.8l0.5-2.7c0,0-9.1,2.4-9.1,9.5
		c0,0-14.3,13-53.7-8C152.2,174.3,143.3,189.8,141.3,199.3z"/>
	<path class="st8" d="M139.7,199.8c-0.1,0-0.3,0.1-0.4,0c-15.6-4-26.4-15.5-26.5-15.7c-0.3-0.3-0.2-0.7,0-1c0.3-0.3,0.7-0.2,1,0
		c0.1,0.1,10.6,11.4,25.8,15.3c0.4,0.1,0.6,0.5,0.5,0.8C140,199.5,139.9,199.7,139.7,199.8z"/>
	<path class="st8" d="M151.5,174.2c-0.2,0.1-0.5,0-0.7-0.1c-0.1,0-6-4.6-18-15.1c-3.6-3.2-7.4-4.6-11.3-4.4
		c-6.4,0.5-10.9,5.6-11,5.7c-0.3,0.3-0.7,0.3-1,0.1c-0.3-0.3-0.3-0.7-0.1-1c0.2-0.2,4.9-5.6,11.9-6.1c4.3-0.3,8.4,1.3,12.4,4.7
		c11.9,10.4,17.8,15,17.9,15c0.3,0.2,0.4,0.7,0.1,1C151.8,174.1,151.6,174.2,151.5,174.2z"/>
	<g>
		
			<linearGradient id="SVGID_00000117635724831157130860000009488689927140925061_" gradientUnits="userSpaceOnUse" x1="108.1544" y1="137.4506" x2="67.2493" y2="181.3857" gradientTransform="matrix(0.9414 -0.3372 0.3372 0.9414 -5.4025 -6.3572)">
			<stop  offset="0" style="stop-color:#FF928E"/>
			<stop  offset="1" style="stop-color:#FEB3B1"/>
		</linearGradient>
		<path style="fill:url(#SVGID_00000117635724831157130860000009488689927140925061_);" d="M127.9,103.6c0,0,10.2,10.8,12.9,17.4
			c2.8,6.6,5.8,10.4-1.5,14.6c-7.3,4.1-15.2,2.6-21.1-2.8c0,0-9.2-8.3-9.5-13C108.4,115.1,127.9,103.6,127.9,103.6z"/>
		<path class="st10" d="M119.1,127l0.4-0.4c0.5-0.4,0.5-1.2,0-1.7c-1.9-1.7-5.7-5.8-3.4-7.9c3-2.7,16.1-10.6,17.3-16.7
			c1.2-5.8-3.6-11.1-8.1-11.5c-0.3,0-0.6,0.2-0.6,0.5l-0.1,0.7c-0.1,0.5-0.7,0.7-1,0.2l0,0c-0.3-0.4-0.9-0.3-1,0.2
			c-0.4,1.8-2.1,5.2-8.3,8.8c-8.9,5.2-13.9,11.3-11.7,18c0.1,0.4-0.2,0.8-0.7,0.7c-0.9-0.2-2.1,0-3.1,1.8c-1.8,3.2,1.3,8.5,8.7,11.2
			c0.4,0.1,0.5,0.6,0.3,0.9c-0.8,1.1-1.8,3.2,3,3.9c5,0.7,8-0.6,9.2-1.2c0.3-0.2,0.4-0.5,0.2-0.8l-3.4-5.4c-0.2-0.3-0.1-0.7,0.3-0.8
			L119.1,127z"/>
		
			<linearGradient id="SVGID_00000083807920816601873930000010664614447096699530_" gradientUnits="userSpaceOnUse" x1="102.1516" y1="131.8617" x2="61.2464" y2="175.7968" gradientTransform="matrix(0.9414 -0.3372 0.3372 0.9414 -5.4025 -6.3572)">
			<stop  offset="0" style="stop-color:#FF928E"/>
			<stop  offset="1" style="stop-color:#FEB3B1"/>
		</linearGradient>
		<path style="fill:url(#SVGID_00000083807920816601873930000010664614447096699530_);" d="M119.8,128.1c0,0-5.1-7.4-7.9-3.8
			c-2.8,3.6,5.2,8.5,8.2,7.7L119.8,128.1z"/>
	</g>
	
		<linearGradient id="SVGID_00000010294912577930784940000010142252748720529822_" gradientUnits="userSpaceOnUse" x1="138.1404" y1="235.6063" x2="156.3204" y2="279.9202" gradientTransform="matrix(0.9414 -0.3372 0.3372 0.9414 -5.4025 -6.3572)">
		<stop  offset="0" style="stop-color:#FF928E"/>
		<stop  offset="1" style="stop-color:#FEB3B1"/>
	</linearGradient>
	<path style="fill:url(#SVGID_00000010294912577930784940000010142252748720529822_);" d="M214.3,189.5c0,0,10.2,4.7,11.3,3.1
		c0.4-0.6,1.2-2.4,1.9-4.4c0.5-1.4,0-3-1.1-3.9l-2.8-2.1c-2.6-2-6.5-1.3-8.1,1.6C214.6,185.3,214.1,187.1,214.3,189.5z"/>
	<path class="st2" d="M352.4,200.5c0,0-11.9-33.1-43.5-60.5c-9.9-8.6-16.5-20.3-18.9-33.1l-2.8-14.4c0,0,23.3-18.4,55.7-20.4
		c0,0,52.7,19,56.3,114.6L352.4,200.5z"/>
	
		<linearGradient id="SVGID_00000031173736503566705280000007671363909077121686_" gradientUnits="userSpaceOnUse" x1="262.7455" y1="136.7174" x2="262.7455" y2="217.0128" gradientTransform="matrix(0.9414 -0.3372 0.3372 0.9414 -5.4025 -6.3572)">
		<stop  offset="0" style="stop-color:#FF928E"/>
		<stop  offset="1" style="stop-color:#FEB3B1"/>
	</linearGradient>
	<path style="fill:url(#SVGID_00000031173736503566705280000007671363909077121686_);" d="M285.4,73.5l12.8,14
		c0.8,0.9,2,1.3,3.2,1.1c4.2-0.7,14.1-3.1,19-9.5c0.6-0.8,0.4-1.8-0.4-2.4l-19.2-13.7L285.4,73.5z"/>
	<g>
		<path class="st0" d="M330.1,144.9c-0.9,0.6-0.9,1.8-0.2,2.5l33.5,31c0.6,0.5,1.4,0.6,2,0.1l58.2-42c0.7-0.5,0.9-1.5,0.4-2.3
			L399,99.6c-0.5-0.7-1.5-0.9-2.2-0.4L330.1,144.9z"/>
		<path class="st14" d="M332.7,139c-0.9,0.6-1,1.7-0.4,2.5l31.3,37.5c0.6,0.7,1.6,0.8,2.3,0.3l58-41.9c0.7-0.5,0.9-1.5,0.4-2.3
			l-23.8-38.3c-0.5-0.8-1.6-1-2.4-0.5L332.7,139z"/>
		<path class="st10" d="M336.8,132.6c-1.1,0.6-1.4,1.9-0.8,3l27.5,42.7c0.6,1,2,1.3,3,0.6l57.2-41.2c0.9-0.7,1.1-1.9,0.5-2.9
			l-23.4-34.5c-0.6-0.9-1.8-1.2-2.7-0.7L336.8,132.6z"/>
	</g>
	<path class="st2" d="M394.8,131.9c-8.4-39.2-47.5-57.6-47.5-57.6l-10,26.1c18.8,11.6,30.3,24.2,37.3,34.9
		C377.9,132.9,386.3,127.9,394.8,131.9z"/>
	<path class="st8" d="M374.7,135.7c-0.2,0.1-0.4,0-0.5-0.2c-8.7-13.2-21.2-24.9-37.2-34.7c-0.2-0.1-0.3-0.4-0.2-0.6
		c0.1-0.2,0.4-0.3,0.6-0.2c16.1,9.9,28.7,21.7,37.5,35C375.1,135.3,375,135.5,374.7,135.7C374.8,135.7,374.8,135.7,374.7,135.7z"/>
	
		<linearGradient id="SVGID_00000146469636014464351130000011420396178181707393_" gradientUnits="userSpaceOnUse" x1="319.4209" y1="266.9252" x2="290.5883" y2="322.3726" gradientTransform="matrix(0.9414 -0.3372 0.3372 0.9414 -5.4025 -6.3572)">
		<stop  offset="0" style="stop-color:#FF928E"/>
		<stop  offset="1" style="stop-color:#FEB3B1"/>
	</linearGradient>
	<path style="fill:url(#SVGID_00000146469636014464351130000011420396178181707393_);" d="M374.6,135.3c6.5,9.9,9.1,18.1,10.1,22.1
		c0.4,1.5-0.4,3.1-1.8,3.7c-1.6,0.7-3.8,1.7-5.8,2.5c-2.2,0.9-5.1,0.4-7.2-0.2c-1.1-0.3-1.8,1-1,1.8c2.1,2,6,3,8.6,3.5
		c0.9,0.2,1.2,1.4,0.4,2l-8.3,5.9c20.2,8.8,24.5-10.7,24.5-10.7c3-12.7,2.8-24,0.7-34C386.3,127.9,377.9,132.9,374.6,135.3z"/>
	<g>
		
			<linearGradient id="SVGID_00000155836059250691348990000017375664405317795762_" gradientUnits="userSpaceOnUse" x1="284.4772" y1="163.898" x2="245.4658" y2="161.2468" gradientTransform="matrix(0.9414 -0.3372 0.3372 0.9414 -5.4025 -6.3572)">
			<stop  offset="0" style="stop-color:#FF928E"/>
			<stop  offset="1" style="stop-color:#FEB3B1"/>
		</linearGradient>
		<path style="fill:url(#SVGID_00000155836059250691348990000017375664405317795762_);" d="M283.5,45.8c-0.2,0.4-3.7,27.9-3.7,27.9
			l15.8,1.7l7.2-25.6C302.8,49.8,286.7,39.5,283.5,45.8z"/>
		<path class="st10" d="M297.6,54.4L294.9,68c0,0.2-0.1,0.4-0.2,0.6c-0.5,1-2.5,4.2-5.7,2c-2.7-1.9-5.2-3.5-7.4-3.8
			c-1.3-0.2-2.4,0.7-2.6,2c-0.3,2.6-0.9,7.8-0.7,12.5c0,1.2,1,2.1,2.2,2.2c3.1,0.1,9.2,0.2,14.2-0.9c0.8-0.2,1.5-0.8,1.7-1.6
			c1-3.6,4-13.5,5.3-16.2c1.2-2.5,4.8-3,6.5-3.1c0.6,0,1.2-0.3,1.6-0.8c1.2-1.5,3.1-4.8-0.8-7.8c-1-0.8-1.1-2.2-0.4-3.2
			c1.3-1.8,2.4-4.6-0.6-7.4c-3.1-2.9-6.4-2-8.5-1c-0.9,0.5-2.1,0.3-2.8-0.5c-0.3-0.3-0.8-0.6-1.4-0.5c-1.2,0.2-2.4-0.6-2.6-1.8
			c-0.3-2.1-1.5-4.6-5.3-5.2c-7-1.1-10.2,5.9-9.9,10.8c0.3,4.9,7.9,5.6,12.2,4.7c3.1-0.7,6,2,7.2,3.5
			C297.5,53,297.7,53.7,297.6,54.4z"/>
		
			<linearGradient id="SVGID_00000077322367676436173310000016911494505002405272_" gradientUnits="userSpaceOnUse" x1="2596.6921" y1="3567.2007" x2="2622.2688" y2="3540.9595" gradientTransform="matrix(-0.8908 -0.4544 -0.4544 0.8908 4249.311 -1897.8267)">
			<stop  offset="0" style="stop-color:#FF928E"/>
			<stop  offset="1" style="stop-color:#FEB3B1"/>
		</linearGradient>
		<path style="fill:url(#SVGID_00000077322367676436173310000016911494505002405272_);" d="M300.8,69.8c0,0-0.1-8.5,3.3-9.4
			c3.4-0.9,7.2,1.5,4.4,6.6C305,73.5,300.8,69.8,300.8,69.8z"/>
	</g>
</g>
<g id="X4LIYi_00000156576066610987054210000002291234664113396097_">
	
		<image style="overflow:visible;" width="3272" height="1833" id="X4LIYi_00000099624607966001900370000015435305333238983822_" xlink:href="22FC047124F708BF.png"  transform="matrix(0.171 0 0 0.171 -1.4579 121.4845)">
	</image>
</g>
<path class="st10" d="M243.7,47.5v46.7h-46.3v0c-0.1,0-0.3,0-0.4,0c-25.8,0-46.7-20.9-46.7-46.7c0-25.8,20.9-46.7,46.7-46.7
	c25.2,0,45.8,20,46.7,45C243.6,46.4,243.7,47,243.7,47.5z"/>
<text transform="matrix(0.9996 -2.964824e-02 2.964824e-02 0.9996 177.6251 70.687)" class="st14 st18 st19">€</text>
</svg>
